<?xml version="1.0" encoding="UTF-8"?>
<svg width="23px" height="28px" viewBox="0 0 23 28" version="1.1" xmlns="http://www.w3.org/2000/svg" xmlns:xlink="http://www.w3.org/1999/xlink">
    <!-- Generator: Sketch 58 (84663) - https://sketch.com -->
    <title>Group</title>
    <desc>Created with Sketch.</desc>
    <g id="Page-1" stroke="none" stroke-width="1" fill="none" fill-rule="evenodd">
        <g id="Group" transform="translate(-0.012051, 0.006556)" fill="#FFFFFF" fill-rule="nonzero">
            <path d="M14.2120508,16.9934441 C14.7399732,16.0820551 15.016072,15.0466846 15.0120941,13.9934441 L15.0120941,13.9934441 C15.0046187,13.4774372 14.9375057,12.9640231 14.8120508,12.4634441 C14.4054863,10.9156608 13.3974593,9.59442539 12.0120508,8.79344408 C11.5315631,8.51730172 10.9181932,8.68295636 10.6420508,9.16344409 C10.3659084,9.64393182 10.5315631,10.2573017 11.0120508,10.5334441 C11.9383242,11.0669168 12.606575,11.9555097 12.8620508,12.9934441 L3.73205081,12.9934441 C3.27944513,12.2095081 2.35672894,11.8273065 1.48236191,12.0615924 C0.607994882,12.2958784 0,13.0882327 0,13.9934441 C0,14.8986554 0.607994882,15.6910098 1.48236191,15.9252957 C2.35672894,16.1595817 3.27944513,15.7773801 3.73205081,14.9934441 L12.8620508,14.9934441 C12.7812122,15.34392 12.6498376,15.680778 12.4720508,15.9934441 C12.1242108,16.6015402 11.6201469,17.1056041 11.0120508,17.4534441 C10.5315631,17.7295865 10.3659085,18.3429563 10.6420508,18.8234441 C10.9181932,19.3039318 11.5315631,19.4695864 12.0120508,19.1934441 C12.9232166,18.6625983 13.6812051,17.9046099 14.2120508,16.9934441 L14.2120508,16.9934441 Z" id="Path"></path>
            <path d="M15.7620508,20.3934441 C15.5742842,20.2041314 15.3186883,20.0976458 15.0520508,20.0976458 C14.7854133,20.0976458 14.5298174,20.2041314 14.3420508,20.3934441 C13.8000203,20.942824 13.1841013,21.4140188 12.5120508,21.7934441 C12.0315631,22.0695865 11.8659085,22.6829563 12.1420509,23.1634441 C12.4181932,23.6439318 13.0315631,23.8095864 13.5120508,23.5334441 C14.3295213,23.0587416 15.0823915,22.4806449 15.7520508,21.8134441 C15.9426919,21.627014 16.0509818,21.3721668 16.0528844,21.1055272 C16.0547373,20.8388877 15.9500473,20.5825406 15.7620508,20.3934441 Z" id="Path"></path>
            <path d="M12.5120508,6.20344408 C16.6729184,8.64598878 18.2005765,13.9137754 15.9920508,18.2034441 C15.7354021,18.692231 15.9234051,19.2965265 16.4120508,19.5534441 C16.5543824,19.6263659 16.7121275,19.6640876 16.8720508,19.663471 C17.2442315,19.6661683 17.5871312,19.4619696 17.7620508,19.1334441 C20.4586955,13.8900303 18.593948,7.45336071 13.5120508,4.46344408 C13.0315631,4.18730171 12.4181932,4.35295635 12.1420508,4.83344408 C11.8659084,5.31393182 12.0315631,5.92730171 12.5120508,6.20344408 Z" id="Path"></path>
            <path d="M22.4420508,9.86344408 C21.3633329,5.75842038 18.6881223,2.25508272 15.0120508,0.133444084 C14.7012297,-0.0451887216 14.3187198,-0.0444311744 14.0086087,0.135431365 C13.6984976,0.315293905 13.5078987,0.646936038 13.5086087,1.00543138 C13.5093187,1.36392672 13.7012297,1.69481129 14.0120508,1.87344408 C17.2276546,3.72188296 19.5660331,6.7844742 20.5020508,10.3734441 C22.1660818,16.4852651 19.500235,22.9506623 14.0120508,26.1134441 C13.5315631,26.3895865 13.3659084,27.0029564 13.6420508,27.4834441 C13.9181932,27.9639318 14.5315631,28.1295865 15.0120508,27.8534441 C17.4421205,26.4434334 19.4620401,24.4235138 20.8720508,21.9934441 C22.9918417,18.3211969 23.5570447,13.9543733 22.4420508,9.86344408 L22.4420508,9.86344408 Z" id="Path"></path>
        </g>
    </g>
</svg>